<svg width="62" height="40" viewBox="0 0 62 40" fill="none" xmlns="http://www.w3.org/2000/svg">
<path d="M42.272 10.419C41.8417 10.0308 41.376 9.68361 40.8811 9.38202C40.0995 8.88858 39.2787 8.46009 38.427 8.10087C37.4111 7.66502 36.3627 7.30951 35.2913 7.03761C34.1687 6.74745 33.0138 6.60101 31.8543 6.6018C30.2266 6.4829 28.6031 6.88389 27.218 7.74696C26.7193 8.1171 26.3192 8.60413 26.053 9.16519C25.7867 9.72626 25.6625 10.3442 25.6911 10.9645C25.6641 11.6723 25.8651 12.3701 26.2645 12.955C26.7091 13.536 27.277 14.011 27.9273 14.3459C28.8041 14.806 29.7273 15.1718 30.6813 15.437C31.7899 15.7646 33.0715 16.1103 34.5263 16.474C36.4189 16.9799 38.138 17.5254 39.6834 18.1106C41.1015 18.6213 42.4277 19.3582 43.6103 20.2927C44.6621 21.1388 45.5103 22.2104 46.0923 23.4284C46.7145 24.8449 47.0128 26.3823 46.9654 27.9287C47.0167 29.771 46.6127 31.5976 45.7894 33.2465C45.0419 34.6795 43.9533 35.9065 42.6197 36.8195C41.2266 37.7572 39.6736 38.4318 38.0375 38.81C36.2597 39.2342 34.4377 39.4448 32.61 39.4375C29.6882 39.4355 26.7833 38.9942 23.9927 38.1285C21.2674 37.3082 18.6914 36.0559 16.3629 34.4195L19.6902 27.9287C20.2349 28.4162 20.829 28.8456 21.4628 29.2098C22.4377 29.8005 23.4489 30.3291 24.4903 30.7924C25.74 31.3496 27.0358 31.7969 28.3631 32.1291C29.7897 32.4934 31.2566 32.6762 32.729 32.6731C36.8748 32.6731 38.9478 31.3461 38.9478 28.6921C38.9697 27.9218 38.7184 27.1685 38.2384 26.5656C37.6815 25.9193 36.9935 25.3988 36.2201 25.0387C35.2027 24.5472 34.1441 24.1459 33.0566 23.8395C31.8203 23.4758 30.4387 23.076 28.9118 22.6402C27.2611 22.2029 25.6445 21.6461 24.0746 20.9743C22.8356 20.4496 21.688 19.7313 20.6747 18.8462C19.7911 18.064 19.0922 17.0954 18.6285 16.0104C18.1463 14.7872 17.9146 13.4797 17.947 12.1653C17.9135 10.3603 18.2864 8.57085 19.038 6.92943C19.7364 5.43834 20.7731 4.13076 22.0655 3.11069C23.4088 2.06541 24.9349 1.2793 26.5658 0.792546C28.3522 0.253871 30.2095 -0.0128712 32.0753 0.00128661C34.6411 -0.026863 37.191 0.407111 39.603 1.28245C41.717 2.04738 43.7312 3.06385 45.6024 4.30993L42.272 10.419Z" fill="#322A7D"/>
<path d="M5.45381 39.9999C8.46586 39.9999 10.9076 37.5581 10.9076 34.5461C10.9076 31.534 8.46586 29.0923 5.45381 29.0923C2.44175 29.0923 0 31.534 0 34.5461C0 37.5581 2.44175 39.9999 5.45381 39.9999Z" fill="#FFA101"/>
<path d="M56.3616 39.9999C59.3737 39.9999 61.8155 37.5581 61.8155 34.5461C61.8155 31.534 59.3737 29.0923 56.3616 29.0923C53.3496 29.0923 50.9078 31.534 50.9078 34.5461C50.9078 37.5581 53.3496 39.9999 56.3616 39.9999Z" fill="#FFA101"/>
</svg>
